<?xml version="1.0" encoding="UTF-8"?>
<svg xmlns="http://www.w3.org/2000/svg" width="640.26" height="127.75" viewBox="0 0 640.26 127.75" role="img" aria-labelledby="title">
  <title id="title">Bandju</title>
  <g fill="#101114">
    <path d="M181.72,64.96c-.78-.39-1.61-.7-2.46-.96.04-.02.07-.03.11-.05,2.17-1.18,3.91-2.86,5.2-5.05,1.29-2.19,1.94-4.88,1.94-8.08,0-4.72-1.64-8.43-4.93-11.16-3.29-2.72-7.99-4.08-14.11-4.08h-23.12c-.39,0-.7.32-.7.7v57.55c0,.39.32.7.7.7h24.64c6.73,0,11.8-1.39,15.21-4.17s5.12-6.7,5.12-11.75c0-3.37-.68-6.19-2.05-8.46-1.37-2.27-3.21-4-5.54-5.18ZM151.92,42.39h14.85c3.84,0,6.83.79,8.95,2.36,2.12,1.57,3.19,3.93,3.19,7.07s-1.06,5.5-3.19,7.07c-2.12,1.57-5.11,2.36-8.95,2.36h-15.53s-.01,0-.02,0v-18.17c0-.39.32-.7.7-.7ZM178.31,85.34c-2.23,1.57-5.44,2.36-9.64,2.36h-16.75c-.39,0-.7-.32-.7-.7v-18.92s.01,0,.02,0h17.43c4.2,0,7.41.79,9.64,2.36,2.23,1.57,3.34,4.07,3.34,7.5s-1.11,5.84-3.34,7.41Z"/>
    <path d="M275.54,51.57c-2.5-1.4-5.4-2.11-8.69-2.11-3.64,0-6.83.82-9.56,2.44-2.04,1.22-3.68,2.8-4.93,4.74v-6.05c0-.39-.32-.7-.7-.7h-5.57c-.39,0-.7.32-.7.7v43.23c0,.39.32.7.7.7h5.88c.39,0,.7-.32.7-.7v-22.29c0-3.25.52-5.98,1.56-8.17,1.04-2.19,2.52-3.84,4.44-4.97,1.92-1.12,4.17-1.68,6.75-1.68,3.44,0,6.11,1.09,8.01,3.28,1.9,2.19,2.85,5.45,2.85,9.77v24.06c0,.39.32.7.7.7h5.88c.39,0,.7-.32.7-.7v-24.98c0-4.38-.71-8-2.12-10.86-1.42-2.86-3.38-5-5.88-6.4Z"/>
    <path d="M334.29,32.03h-5.88c-.39,0-.7.32-.7.7v23.93c-1.36-1.95-2.98-3.52-4.86-4.68-2.73-1.68-5.79-2.53-9.18-2.53-3.9,0-7.37.96-10.43,2.86-3.06,1.91-5.48,4.56-7.25,7.96-1.77,3.4-2.66,7.37-2.66,11.92s.88,8.54,2.66,11.96c1.77,3.43,4.19,6.09,7.25,8,3.06,1.91,6.54,2.86,10.43,2.86,3.49,0,6.6-.85,9.33-2.57,1.97-1.23,3.63-2.9,5.01-4.99v6.35c0,.39.32.7.7.7h5.57c.39,0,.7-.32.7-.7v-61.08c0-.39-.32-.7-.7-.7ZM326,80.5c-1.19,2.39-2.81,4.23-4.86,5.52-2.05,1.29-4.34,1.94-6.87,1.94s-4.88-.64-6.91-1.94c-2.02-1.29-3.64-3.13-4.86-5.52-1.21-2.39-1.82-5.15-1.82-8.3s.61-5.96,1.82-8.29c1.21-2.33,2.83-4.14,4.86-5.43,2.02-1.29,4.33-1.94,6.91-1.94s4.82.65,6.87,1.94c2.05,1.29,3.67,3.1,4.86,5.43,1.19,2.33,1.78,5.09,1.78,8.29s-.59,5.91-1.78,8.3Z"/>
    <path d="M352.83,30.76c-1.42,0-2.59.51-3.53,1.52-.94,1.01-1.4,2.27-1.4,3.79s.47,2.7,1.4,3.71c.94,1.01,2.11,1.52,3.53,1.52s2.66-.52,3.57-1.56c.91-1.04,1.37-2.32,1.37-3.83s-.47-2.68-1.4-3.66c-.94-.98-2.11-1.47-3.53-1.47Z"/>
    <path d="M355.76,49.88h-5.88c-.39,0-.7.32-.7.7v46.12c0,2.58-.52,4.53-1.56,5.85-1.04,1.32-2.52,1.98-4.44,1.98-2.07,0-3.81-.51-5.21-1.53-.37-.27-.89-.1-1.05.33l-1.82,4.83c-.11.29-.03.63.22.81.98.74,2.15,1.3,3.5,1.7,1.54.45,3.15.67,4.82.67,4.15,0,7.32-1.33,9.52-4,2.2-2.67,3.3-6.27,3.3-10.82v-45.95c0-.39-.32-.7-.7-.7Z"/>
    <path d="M407.13,49.88h-5.88c-.39,0-.7.32-.7.7v22.37c0,3.15-.51,5.83-1.52,8.04-1.01,2.22-2.45,3.9-4.33,5.05-1.87,1.15-4.07,1.73-6.6,1.73-3.44,0-6.11-1.09-8-3.29-1.9-2.19-2.85-5.47-2.85-9.85v-24.06c0-.39-.32-.7-.7-.7h-5.88c-.39,0-.7.32-.7.7v24.98c0,4.38.72,8.02,2.16,10.91,1.44,2.89,3.46,5.04,6.07,6.44,2.6,1.4,5.63,2.11,9.07,2.11s6.25-.81,8.88-2.44c1.96-1.21,3.55-2.8,4.78-4.76v6c0,.39.32.7.7.7h5.5c.39,0,.7-.32.7-.7v-43.23c0-.39-.32-.7-.7-.7Z"/>
    <path d="M455.41,38.01c-3.29-1.63-7.26-2.44-11.91-2.44h-20.01c-.39,0-.7.32-.7.7v57.55c0,.39.32.7.7.7h6.18c.39,0,.7-.32.7-.7v-17.15h13.13c4.65,0,8.62-.83,11.91-2.48,3.29-1.66,5.82-4.01,7.59-7.07,1.77-3.06,2.66-6.72,2.66-10.99s-.89-7.94-2.66-11.03c-1.77-3.09-4.3-5.45-7.59-7.07ZM454.31,65.88c-2.5,2.3-6.18,3.45-11.04,3.45h-12.9v-26.44h12.9c4.86,0,8.54,1.15,11.04,3.45,2.5,2.3,3.76,5.56,3.76,9.77s-1.25,7.47-3.76,9.77Z"/>
    <path d="M490.01,49.46c-3.19,0-6.24.49-9.14,1.47-2.72.92-5.07,2.21-7.06,3.89-.25.21-.32.57-.17.86l2.38,4.76c.21.41.73.51,1.09.21,1.43-1.18,3.13-2.15,5.09-2.9,2.28-.87,4.6-1.31,6.98-1.31,3.59,0,6.29.94,8.08,2.82,1.79,1.88,2.69,3.54,2.69,6.96v1.64l-11.53.96c-4,0-7.17.59-9.52,1.77-2.35,1.18-4.05,2.75-5.08,4.72-1.04,1.97-1.56,4.16-1.56,6.57s.61,4.79,1.82,6.78c1.21,1.99,2.95,3.55,5.2,4.67s4.87,1.68,7.85,1.68c3.69,0,12.22-3.19,13.2-3.94v2.73c0,.39.32.7.7.7h5.5c.39,0,.7-.32.7-.7v-26.25c0-6.12-1.49-10.67-4.48-13.64-2.99-2.98-7.23-4.46-12.75-4.46ZM495.51,86.77c-2.05,1.35-4.44,2.02-7.17,2.02s-4.96-.66-6.53-1.98c-1.57-1.32-2.35-3.07-2.35-5.26,0-1.91.63-3.54,1.9-4.88,1.26-1.35,3.72-2.02,7.36-2.02l11.23-.96v9.68c-.29-.08-2.9,2.39-4.44,3.41Z"/>
    <path d="M550.9,51.57c-2.5-1.4-5.4-2.11-8.69-2.11-3.64,0-6.83.82-9.56,2.44-2.04,1.22-3.68,2.8-4.93,4.74v-6.05c0-.39-.32-.7-.7-.7h-5.57c-.39,0-.7.32-.7.7v43.23c0,.39.32.7.7.7h5.88c.39,0,.7-.32.7-.7v-22.29c0-3.25.52-5.98,1.56-8.17,1.04-2.19,2.52-3.84,4.44-4.97,1.92-1.12,4.17-1.68,6.75-1.68,3.44,0,6.11,1.09,8.01,3.28,1.9,2.19,2.85,5.45,2.85,9.77v24.06c0,.39.32.7.7.7h5.88c.39,0,.7-.32.7-.7v-24.98c0-4.38-.71-8-2.12-10.86-1.42-2.86-3.38-5-5.88-6.4Z"/>
    <path d="M599.2,52.33c-2.99-1.91-6.42-2.86-10.32-2.86s-7.3.97-10.36,2.91c-3.06,1.94-5.46,4.62-7.21,8.04s-2.62,7.36-2.62,11.79.9,8.37,2.69,11.79c1.79,3.43,4.33,6.12,7.59,8.08,3.26,1.97,7.04,2.95,11.34,2.95,3.34,0,6.36-.62,9.07-1.85,2.54-1.16,4.68-2.81,6.44-4.95.21-.25.21-.62,0-.88l-3.15-4.1c-.27-.35-.79-.36-1.09-.03-1.34,1.47-2.86,2.6-4.56,3.39-1.95.9-4.11,1.35-6.49,1.35-2.88,0-5.44-.64-7.66-1.94-2.23-1.29-3.96-3.1-5.2-5.43-.92-1.72-1.49-3.61-1.73-5.68h32.65c.05-.39.09-.81.11-1.26.03-.45.04-.84.04-1.18,0-4.6-.85-8.63-2.54-12.08-1.7-3.45-4.03-6.13-7.02-8.04ZM582.13,58.18c1.97-1.26,4.22-1.89,6.75-1.89s4.84.63,6.79,1.89c1.95,1.26,3.48,3.02,4.59,5.26.84,1.7,1.33,3.59,1.51,5.64h-25.83c.21-2.04.73-3.91,1.56-5.6,1.11-2.27,2.66-4.04,4.63-5.31Z"/>
    <rect x="618.85" y="32.03" width="7.28" height="62.49" rx=".7" ry=".7"/>
    <path d="M215.17,49.46c-3.19,0-6.24.49-9.14,1.47-2.72.92-5.07,2.21-7.06,3.89-.25.21-.32.57-.17.86l2.38,4.76c.21.41.73.51,1.09.21,1.43-1.18,3.13-2.15,5.09-2.9,2.28-.87,4.6-1.31,6.98-1.31,3.59,0,6.29.94,8.08,2.82,1.79,1.88,2.69,3.54,2.69,6.96v1.64l-11.53.96c-4,0-7.17.59-9.52,1.77-2.35,1.18-4.05,2.75-5.08,4.72-1.04,1.97-1.56,4.16-1.56,6.57s.61,4.79,1.82,6.78c1.21,1.99,2.95,3.55,5.2,4.67s4.87,1.68,7.85,1.68c3.69,0,12.22-3.19,13.2-3.94v2.73c0,.39.32.7.7.7h5.5c.39,0,.7-.32.7-.7v-26.25c0-6.12-1.49-10.67-4.48-13.64-2.99-2.98-7.23-4.46-12.75-4.46ZM220.67,86.77c-2.05,1.35-4.44,2.02-7.17,2.02s-4.96-.66-6.53-1.98c-1.57-1.32-2.35-3.07-2.35-5.26,0-1.91.63-3.54,1.9-4.88,1.26-1.35,3.72-2.02,7.36-2.02l11.23-.96v9.68c-.29-.08-2.9,2.39-4.44,3.41Z"/>
  </g>
  <path fill="#4d6169" d="M75.16,33.08v26.76h-37.77v58.08H9.42V9.91h42.57c12.79,0,23.17,10.37,23.17,23.17Z"/>
  <path fill="#4d6169" d="M115.25,9.91v58.08c0,13.79-5.59,26.27-14.63,35.31s-21.51,14.62-35.3,14.62h-15.81v-45.95h37.77V9.91h27.97Z"/>
</svg>
