<?xml version="1.0" encoding="UTF-8"?>
<svg id="_Слой_1" data-name="Слой 1" xmlns="http://www.w3.org/2000/svg" width="394.66" height="394.66" viewBox="0 0 394.66 394.66">
  <g id="_84DWPY.tif" data-name="84DWPY.tif">
    <g>
      <path d="M394.66,394.66H0v-13.13c0-2.97,2.21-11.08,3.17-14.34,3.83-13.02,12.44-25.73,22.94-34.19-5.04-7.51-9.14-15.56-11.25-24.42-3.84-16.17-3.81-63.61.49-79.6,11.89-44.24,65.54-64.77,104.25-40.25l10.09,7c2.11-7.23,7.53-13,13.8-16.84,2.61-1.6,8.19-3.37,10.04-5.07,6.4-5.88,5.89-12.45,17.24-17.77,10.19-4.77,44.68-4.46,56.03-2.12,16.79,3.46,32.6,17.34,37.38,33.84,6.57-1.75,9.96-6.87,15.18-10.67,16.17-11.79,33.41-13.93,52.62-8.99,1.95.5,7.2,2.96,8.19,2.92s5.04-2.85,6.77-3.53c20.35-8.06,45.06,9.65,47.73,30.62v11.94c-2.77,14.67-10.36,28.04-23.07,36.21,2.09,2.76,4.7,4.65,6.52,7.8,10.43,18.07-2,38.6-22.35,38.83-1.18,6.03-4.74,12.42-9.21,16.65-1.24,1.17-5.68,3.62-5.88,4.44s1.44,4.8,2.31,5.46c1.35,1.02,5.17,1.54,7.12,2.43,17.42,8.01,30.48,19.45,38.35,37.25,3.15,7.14,4.74,14.4,6.23,22.02v13.53ZM252.22,218.82c7.25-20.41-2.43-43.21-22.86-50.73-9.87-3.64-34.23-3.55-45.19-2.61-6.48.56-12.47,3.95-16.28,9.18-1.87,2.58-2.56,7.13-3.39,8.15s-12.19,5.64-14.67,7.21c-10.7,6.78-11.94,17.61-7.03,28.78l10.63-2.5c2.7-8.18,8.34-15.28,16.84-17.77,7.63-2.23,40.83-2.14,49.65-1.11,10.44,1.22,18.26,9.17,21.3,18.87l11,2.52ZM292.82,203.7h12.73c.12,37.31,49.08,52.71,70.04,21.11,10.16-15.32,8.67-39.08-11.17-45.37-22.53-7.14-29.29,21.1-7.95,24.26v12.73c-18.34-.31-29.77-17.85-23.88-34.99-17.64-6.34-34.12-3.21-48.54,8.33-2.15,1.72-4.21,4.92-6.39,6.34-3.01,1.95-7.1,1.96-9.92,4.41-.91,2.95-.1,6.04-.49,9.06-.66,5.04-3.94,13.67-3.9,17.63.04,3.73,5.57,9.75,4.01,14.69l4.92-10.58c4.67-7.61,13.13-13.24,22.13-14.08l-1.6-13.53ZM134.75,259.91c-5.5-5.66-8.36-14.38-7.23-22.19.55-3.78,3.77-7.74,3.79-10.53.21-20.97-25.81-34.99-44.19-36.22-26.74-1.79-52.39,15.54-59.48,41.56-3.72,13.65-3.29,48.13-2.17,63.06.81,10.7,5.2,20.59,10.45,29.74,1.4.82,6.78-2.71,8.65-3.46,2.08-.83,6.85-1.79,8.2-2.74.43-.3,4.34-7.95,4.3-8.42-7.64-6.53-14.16-14.19-17.05-24.09s-3.01-37.52-.45-46.94c3.27-12,14.37-22.31,26.74-23.96,6.02,8.93,13.1,16.48,23.41,20.41,11.88,4.54,20.13,2.23,29.67,13.3,15.68,18.2,7.07,47.96-10.94,61.28l4.3,8.42,16.46,6.38c13.32-18.21,10.8-39.63,10.91-60.96-.19-1.57-4.01-3.25-5.35-4.63ZM175.64,210.25c-5.01.84-9.38,5.55-10.07,10.62-1.17,8.58-1.03,33.3-.08,42.11.88,8.1,8.25,15.97,16.38,17.03,6.47.85,23.58.79,30.17.07,8.1-.88,15.97-8.25,17.03-16.38,1.2-9.13.94-31.87.1-41.34-.55-6.21-4.49-11.37-10.84-12.23-7.45-1.01-35.5-1.09-42.71.12ZM152.77,229.16c-16.99.81-16.94,24.68,0,25.46v-25.46ZM241.89,254.62c16.99-.81,16.94-24.68,0-25.46v25.46ZM343.74,254.62c-12.51.21-25.49-5.13-34.64-13.5-2.25-2.06-8.94-11.59-9.67-11.84-1.44-.5-2.87-.03-4.28.25-7.58,1.49-14.26,9.11-15.09,16.74-1.03,9.49-1.02,32.69,0,42.18.92,8.51,8.57,16.18,17.11,17.11,6.76.73,22.69.73,29.45,0,8.09-.87,15.96-8.23,17.03-16.38,1.39-10.6-.9-23.67.07-34.55ZM61.68,230.95c-5.55,2.91-9.87,9.2-10.68,15.39-1.07,8.11-.76,31.13,1.93,38.51,12.83,35.14,66.82,22.5,61.59-17.03-2.09-15.78-15.25-15.05-26.62-18.74-10.26-3.33-19.23-10.17-26.22-18.13ZM267.35,254.62c-1.13-.09-2.1-.08-3.16.42-.68.32-8.96,9.12-9.21,9.88-2.36,7.35,4.86,15.6,12.37,15.16v-25.46ZM356.47,280.08c16.99-.81,16.94-24.68,0-25.46v25.46ZM166.9,294.21c.39-.48,1.85-5.51,1.44-6.16-4.37-2.4-7.55-5.51-10.33-9.62l-5.23-11.07-.8,35.01c2.18-2.76,13.65-6.58,14.91-8.16ZM268.07,292.9c-14.47,0-25.98-10.98-26.18-25.54l-5.23,11.07c-2.87,4.46-6.34,7.08-10.57,10.1-.07.29,1.48,5.42,1.69,5.69.47.59,11.04,5.61,13.26,7.03,9.7,6.22,18.18,14.61,24.44,24.27.82.13,14.72-5.57,15.38-6.06,1.31-.99,1.62-3.45,2.3-4.91l-.23-1.02c-7.63-4.42-13.11-11.95-14.85-20.61ZM214.04,292.82h-33.42l-.03,3.57,17,8.18,16.47-8.18-.03-3.57ZM183.8,311.92c-3.42-.25-9.51-5.52-12.33-5.52-.78,0-7.55,3.2-7.62,3.61l4.05,11.45c.8.59,14.48-7.54,15.9-9.54ZM230.69,309.6c-2.57-.3-5.63-3.5-8.11-3.13-2.87.43-8.49,4.92-11.72,5.83,1.92,1.48,14.94,9.86,15.9,9.15l3.93-11.86ZM63.66,325.84c-.99,4.85.73,12.68,0,17.9h38.19v-17.9c0-1.13-4.93-7.66-4.81-9.94-9.09,3.03-19.15,3.43-28.16-.04-.75,2.7-4.78,7.79-5.23,9.98ZM127.31,365.62c-.46,5.23.34,11.02,0,16.31h140.04v-16.31c0-2.83-2.43-11.74-3.41-14.89-3.79-12.29-12.06-24.81-22.44-32.46l-9.6,21.48-34.91-19.88-34.23,19.88c-1.09-.25-7.96-17.75-9.12-20.37-.33-.75.47-1.39-1.25-1.1-6.64,6.16-12.52,12.55-16.74,20.66-3.7,7.12-7.64,18.72-8.34,26.67ZM328.51,318.39l-32.78-.15c-2.6,3.99-2.28,4.8,1.14,7.53,8.43,6.72,21.67,6.71,30.09,0,.77-.62,2.91-2.31,2.99-3.1.04-.37-1.25-4.16-1.43-4.29ZM381.14,381.93c-1.43-23.41-19.06-43.15-41.14-49.98-4.5,2.86-8.19,6.64-13.23,8.74-15.15,6.35-30.85,2.49-42.42-8.74l-12.23,4.63c6.35,14.36,8.87,29.62,7.96,45.34h101.05ZM66.84,381.93c-10.95-13.58-16.75-31-15.92-48.54-20.23,7.28-36.08,26.93-37.39,48.54h53.31ZM98.67,381.93h15.91c-.78-15.4,1.33-30.95,7.98-44.92l-7.58-3.62c-.03,17.61-5.19,34.84-16.32,48.55ZM98.67,356.47h-31.83c3.51,8.56,8.42,17.65,16.2,23.02,7.18-6.09,12.13-14.37,15.63-23.02Z"/>
      <path d="M241.89,0v17.5c36.31,6.35,70.53,23.12,99.23,45.99l53.54.17v89.12h-89.12V63.66h13.53c-22.55-16.9-49.73-27.43-77.18-33.42v58.88h-89.12V30.24c-26.02,5.37-50.81,15.69-73.14,29.91l-21.55,16.24h31.03v89.12H0v-89.12h39.39c30.69-30.14,70.88-51.13,113.35-58.92l.04-17.47h89.12ZM221.2,12.73h-55.7v63.66h63.66V23.87l-37.9,42.11-16.63-15.87c-1.72-2.08,6.96-9.56,7.98-9.56l7.96,7.18,30.63-35ZM373.98,76.39h-55.7v63.66h63.66v-52.52l-37.9,42.11-16.63-15.87c-1.72-2.08,6.96-9.56,7.98-9.56l7.96,7.18,30.63-35ZM68.43,89.12H12.73v63.66h63.66v-52.52l-37.9,42.11-16.63-15.87c-1.72-2.08,6.96-9.56,7.98-9.56l7.96,7.18,30.63-35Z"/>
      <rect x="216.43" y="114.58" width="12.73" height="12.73"/>
      <rect x="190.97" y="114.58" width="12.73" height="12.73"/>
      <rect x="165.5" y="114.58" width="12.73" height="12.73"/>
    </g>
  </g>
</svg>