<?xml version="1.0" encoding="UTF-8"?>
<svg id="_Слой_1" data-name="Слой 1" xmlns="http://www.w3.org/2000/svg" width="391.12" height="391.12" viewBox="0 0 391.12 391.12">
  <g id="uhzGBh.tif">
    <g>
      <path d="M133.32,391.12H30.54c-15.3-3.31-27.84-15.05-29.51-31.03-3.17-30.41,2.16-65.67-.13-96.6,1.05-8.86,11.82-9.53,13.91-.8l.04,95.77c1.33,9.67,9.03,17.39,18.73,18.73l99.11.18c7.37,2.96,7.07,9.84.62,13.75Z"/>
      <path d="M391.12,30.52v100.17c-3.91,6.45-10.79,6.75-13.75-.62l-.18-96.51c-1.34-9.69-9.05-17.4-18.73-18.73l-93.15-.05c-8.12-1.27-7.52-13.46.8-13.9,30.09,2.22,64.39-2.96,93.98.13,10.21,1.06,20.89,7.73,25.95,16.73l5.08,12.78Z"/>
      <path d="M391.12,261.34v100.17c-3.44,15.54-14.03,26.17-29.61,29.61h-97.55c-5.87-3.46-6.2-11.29.62-13.75l93.88-.18c9.69-1.33,17.4-9.05,18.73-18.73l.04-95.77c2.29-7.94,9.86-8.14,13.89-1.36Z"/>
      <path d="M62.56,40.33l264.58-.26c12.9,1.12,23.71,11.92,24.82,24.82v262.24c-1.12,12.9-11.92,23.71-24.82,24.82H64.91c-12.9-1.12-23.71-11.92-24.82-24.82l.04-263.07c1.62-11.89,10.65-21.36,22.43-23.74ZM189.06,54.03h-124.98c-3.04,0-10.02,6.99-10.02,10.02v124.99h135V54.03ZM327.98,54.03h-124.98v135.01h135v-124.99c0-2.84-6.91-9.47-10.02-10.02ZM189.06,202.98H54.06v124.99c0,2.85,7.51,10.02,10.02,10.02h124.98v-135.01ZM337.99,202.98h-135v135.01h124.98c2.8,0,10.02-7.22,10.02-10.02v-124.99Z"/>
      <path d="M136.56,2.89c4.06,4.09,1.2,11.51-4.6,11.89l-98.37.05c-9.67,1.33-17.39,9.04-18.73,18.73l-.04,95.77c-2.45,9.32-13.59,7.63-13.93-1.65,2.08-30.67-2.65-64.71.06-94.97C2.48,15.59,16.51,2.21,33.56.87c31.1-2.44,65.32,1.93,96.75-.02,1.75.01,5.07.85,6.24,2.03Z"/>
      <path d="M69.3,227.37c-6.1-1.3-6.97-12.65.92-13.89l100.15-.1c5.85.53,7.75,2.43,8.28,8.28l-.44,101.56c-.95,2.34-2.82,3.87-5.32,4.26-10.12,1.58-24.07-.92-34.61-.13-6.65-2.34-4.6-13.76,1.56-13.76h24.82v-86.23h-95.37Z"/>
      <path d="M149.62,242.42c1.29,1.28,1.87,4.4,2.03,6.24.96,10.54,1.17,35.06-.03,45.36-.55,4.73-2.99,6.15-7.38,6.56-10.72.98-35.74,1.2-46.22-.02-4.73-.55-6.15-2.99-6.55-7.38-.98-10.72-1.2-35.74.02-46.22.55-4.73,2.99-6.15,7.38-6.56,10.68-.97,34.85-1.15,45.35.02,1.45.16,4.43,1.04,5.4,2.01ZM137.67,254.37h-32.23v32.23h32.23v-32.23Z"/>
      <path d="M254.82,164.65c6.22,1.35,7.05,12.13-.18,13.75-4.48,1.01-29.52.84-34.6.13-3.08-.43-5.45-2.08-6.16-5.14l-.47-101.54c-.13-2.93,1.19-5.37,3.75-6.71l105.42-.47c2.66.75,4.5,2.77,4.93,5.53.53,3.42.55,22-.34,24.82-1.47,4.69-8.31,5.79-11.53,2.3-.31-.34-2.02-3.44-2.02-3.65v-15.24h-86.23v86.23c7.8,1.15,20.25-1.56,27.44,0Z"/>
      <path d="M242.43,149.6c-.97-.97-1.85-3.95-2.01-5.4-1.17-10.5-.99-34.67-.02-45.35.4-4.4,1.82-6.83,6.55-7.38,10.48-1.22,35.5-1,46.22-.02,4.4.4,6.83,1.82,7.38,6.56,1.22,10.49,1,35.5.02,46.22-.4,4.4-1.82,6.83-6.55,7.38-10.3,1.2-34.82.98-45.35.03-1.84-.17-4.96-.75-6.24-2.03ZM286.61,105.43h-32.23v32.23h32.23v-32.23Z"/>
      <path d="M176.62,176.6c-1.29,1.29-4.4,1.87-6.24,2.03-31.27,2.84-66.78-2.25-98.5,0-3.16.14-5.78-1.42-6.97-4.35v-105.49l3.92-3.92h105.48c2.92,1.19,4.5,3.81,4.35,6.97-2.25,31.73,2.84,67.24,0,98.51-.17,1.84-.75,4.96-2.03,6.24ZM164.67,78.42h-86.23v86.23h86.23v-86.23Z"/>
      <path d="M215.43,215.42c1.29-1.29,4.4-1.87,6.24-2.03,31.27-2.84,66.78,2.25,98.5,0,3.16-.14,5.78,1.42,6.97,4.35v105.49l-3.92,3.92h-105.48c-2.92-1.19-4.5-3.81-4.35-6.97,2.25-31.73-2.84-67.24,0-98.51.17-1.84.75-4.96,2.03-6.24ZM313.61,227.37h-86.23v86.23h86.23v-86.23Z"/>
      <path d="M149.62,149.6c-1.28,1.29-4.4,1.87-6.24,2.03-10.54.96-35.05,1.17-45.35-.03-4.73-.55-6.15-2.99-6.55-7.38-.98-10.72-1.2-35.74.02-46.22.55-4.73,2.99-6.15,7.38-6.56,10.72-.98,35.74-1.2,46.22.02,4.73.55,6.15,2.99,6.55,7.38.97,10.68,1.15,34.86-.02,45.35-.16,1.45-1.04,4.43-2.01,5.4ZM137.67,105.43h-32.23v32.23h32.23v-32.23Z"/>
      <path d="M242.43,242.42c1.28-1.29,4.4-1.87,6.24-2.03,10.54-.96,35.05-1.17,45.35.03,4.73.55,6.15,2.99,6.55,7.38.98,10.72,1.2,35.74-.02,46.22-.55,4.73-2.99,6.15-7.38,6.56-10.72.98-35.74,1.2-46.22-.02-4.73-.55-6.15-2.99-6.55-7.38-.97-10.68-1.15-34.86.02-45.35.16-1.45,1.04-4.43,2.01-5.4ZM286.61,254.37h-32.23v32.23h32.23v-32.23Z"/>
    </g>
  </g>
</svg>