<?xml version="1.0" encoding="UTF-8"?>
<svg id="_Слой_1" data-name="Слой 1" xmlns="http://www.w3.org/2000/svg" width="415.18" height="367.08" viewBox="0 0 415.18 367.08">
  <g id="Z5v33V.tif">
    <g>
      <path d="M0,5.06C2.22,2.12,4.32-.29,8.43.03l255.46.03c11.7,1.36,7.34,15.98,1.97,15.98H15.96v199.46h383.08V16.03h-106.24c-5.47,0-9.21-14.29,1.06-15.9l113.69-.08c3.19.08,5.86,2.04,7.01,4.96l.49,273.86c.9,2.72-3.25,8.43-5.53,8.43h-138.17v31.91h34.42c3.29,0,5.28,5.57,5.53,8.43.64,7.05.94,26.31-.11,32.9-.54,3.38-2.53,4.55-4.93,6.54H108.74c-1.22-1.06-4.99-4.05-4.99-5.49v-36.9c0-1.17,4.32-5.49,5.49-5.49h34.42v-31.91H5.49c-1.43,0-4.43-3.77-5.49-4.99V5.06ZM399.04,231.45H15.96v39.89h383.08v-39.89ZM255.39,287.29h-95.77v31.91h95.77v-31.91ZM295.29,335.16H119.71v15.96h175.58v-15.96Z"/>
      <path d="M111.73,87.84v23.93h42.4c2.64,0,5.21,4.86,5.51,7.46,1.01,8.67,1.02,32.28,0,40.93-.63,5.33-3.31,7.04-8.45,7.51-15.7,1.42-33.76-.98-49.71-.26-9.13-2.04-5.6-15.74-.21-15.74h42.4v-23.93h-42.4c-2.64,0-5.21-4.86-5.51-7.46-1.01-8.67-1.02-32.28,0-40.93.63-5.33,3.31-7.04,8.45-7.51,15.7-1.42,33.76.98,49.71.26,9.13,2.04,5.6,15.74.21,15.74h-42.4Z"/>
      <path d="M191.54,87.84v23.93h42.4c2.64,0,5.21,4.86,5.51,7.46,1.01,8.67,1.02,32.28,0,40.93-.63,5.33-3.31,7.04-8.45,7.51-15.7,1.42-33.76-.98-49.71-.26-9.13-2.04-5.6-15.74-.21-15.74h42.4v-23.93h-42.4c-2.64,0-5.21-4.86-5.51-7.46-1.01-8.67-1.02-32.28,0-40.93.63-5.33,3.31-7.04,8.45-7.51,15.7-1.42,33.76.98,49.71.26,9.13,2.04,5.6,15.74.21,15.74h-42.4Z"/>
      <path d="M271.35,111.77h31.92v-34.41c0-5.16,14.81-10.4,16.01,2.94l-.26,81.61c-2.04,9.13-15.75,5.59-15.75.21v-34.41h-31.92v34.41c0,5.16-14.81,10.4-16.01-2.94l.26-81.61c2.04-9.13,15.75-5.59,15.75-.21v34.41Z"/>
    </g>
  </g>
</svg>