<?xml version="1.0" encoding="UTF-8"?>
<svg id="_Слой_1" data-name="Слой 1" xmlns="http://www.w3.org/2000/svg" width="388.26" height="395.04" viewBox="0 0 388.26 395.04">
  <path d="M375.71,182.11h-46.26c-3.86,0-7.64-1.58-10.35-4.32l-21.9-22.16c-2.68-2.71-4.17-6.29-4.2-10.1l-.53-58.59c-.03-3.31-1.33-6.42-3.68-8.76L214.71,4.09c-2.36-2.36-5.51-3.67-8.85-3.68L12.58,0h-.03c-3.35,0-6.5,1.3-8.87,3.67C1.31,6.04,0,9.2,0,12.56v345.81c0,6.92,5.63,12.56,12.55,12.56l236.44.02c3.73,0,7.28,1.41,10,3.98l17.64,16.67c4.97,4.69,12.65,4.59,17.49-.23l24.89-24.8c2.14-2.13,4.89-3.53,7.93-4.05,29.37-4.96,51.97-24.45,58.99-50.87.9-3.38,2.32-9.2,2.32-10.4v-106.57c0-6.92-5.63-12.56-12.56-12.56ZM214.81,26.91l51.11,51.12h-51.11V26.91ZM15.35,355.57V15.32h184.12v78.06h78.05v58.22l-30.51,30.51h-64.89v119.12c0,14.77,13.05,35.68,24.77,45.2l12.94,9.14H15.35ZM372.92,299.5c0,11.21-6.15,23.13-16.88,32.71-11.95,10.67-27.28,16.46-40.11,15.19l-30.42,30.2-31.09-30.24c-23.58.43-45.41-13.47-53.21-33.83-.78-2.02-3.74-11.04-3.74-13.16v-102.91h56.53l30.88-30.7,31.51,30.7h56.53v102.04Z"/>
  <path d="M50.04,128.07h104.07v-34.69h26.02v-50.04h-67.38v50.04h26.02v19.35H34.69v206.16h52.04v17.35h76.05v-50.04h-76.05v17.35h-36.69v-54.04h36.69v17.35h76.05v-50.04h-76.05v17.35h-36.69v-54.04h36.69v17.35h76.05v-50.04h-76.05v17.35h-36.69v-36.69ZM128.09,78.03v-19.35h36.69v19.35h-36.69ZM102.07,301.53h45.36v19.35h-45.36v-19.35ZM102.07,232.15h45.36v19.35h-45.36v-19.35ZM102.07,162.76h45.36v19.35h-45.36v-19.35Z"/>
  <rect x="216.81" y="112.72" width="41.36" height="15.35"/>
  <rect x="216.81" y="147.42" width="41.36" height="15.35"/>
  <rect x="182.12" y="112.72" width="15.34" height="15.35"/>
  <rect x="182.12" y="147.42" width="15.34" height="15.35"/>
  <path d="M300.2,207.25c-.4-1.31-.75-2.47-1.06-3.35h-27.91c-.37,1.02-.72,2.24-1.09,3.51-1.54,5.31-3.45,11.92-8.87,12.71-1.88.28-4.65-1.17-7.85-2.83-2.71-1.41-6.41-3.34-7.68-2.76-1.69,1.03-16.77,16.29-18.37,18.57.29,1.9,1.4,3.98,2.56,6.19,2.22,4.2,4.73,8.96,1.29,13.07-1.32,1.58-5.27,2.97-10.3,4.62-1.55.51-3.43,1.13-4.16,1.48l.14,27.67c.86.27,1.84.54,2.87.82,5.29,1.44,12.53,3.41,13.36,9.16.29,2.02-1.27,5.02-2.92,8.19-1.35,2.6-3.21,6.17-2.68,7.35,1.03,1.69,16.29,16.77,18.57,18.37,1.9-.29,3.98-1.4,6.19-2.56,2.71-1.43,5.65-2.98,8.5-2.98,1.57,0,3.11.47,4.57,1.69,1.58,1.32,2.97,5.27,4.62,10.3.51,1.55,1.13,3.43,1.48,4.16l27.69-.15c.37-1.02.72-2.23,1.08-3.49,1.54-5.33,3.46-11.96,8.88-12.73,2.16-.3,5.26,1.3,8.55,3,2.39,1.23,5.61,2.91,6.85,2.64l18.48-18.77c-.31-1.88-1.39-3.96-2.53-6.15-2.18-4.2-4.65-8.96-1.3-12.95,1.32-1.58,5.27-2.97,10.3-4.62,1.55-.51,3.44-1.13,4.17-1.48l-.17-27.7c-1.2-.49-2.7-.92-4.26-1.38-4.98-1.44-11.18-3.23-11.94-8.58-.33-2.29,1.31-5.34,3.03-8.57,1.38-2.58,3.1-5.79,2.57-6.97-1.03-1.69-16.27-16.75-18.57-18.37-1.92.31-4.01,1.38-6.21,2.5-4.17,2.13-8.89,4.55-13.03,1.39-1.82-1.39-3.21-5.62-4.84-11ZM319.58,233.1l.34.11c2,.64,3.22,1.59,3.74,2.89.84,2.11-.47,4.5-1.73,6.8-.77,1.41-1.57,2.86-1.77,4.09-.21,1.29,1.41,4.54,2.85,7.41,1.86,3.71,3.77,7.53,3.88,10.47l11.2,4.12.2,5.88-11.64,4.7-6.55,16.52,4.18,10.48-.11.34c-.64,2-1.59,3.22-2.89,3.74-2.11.84-4.5-.47-6.8-1.73-1.41-.77-2.86-1.57-4.09-1.77-1.35-.23-4.71,1.44-7.67,2.9-3.62,1.8-7.36,3.65-10.21,3.81l-4.13,11.21-5.88.21-4.6-11.4c-3.13-.09-7.07-2.23-10.58-4.14-2.39-1.3-4.87-2.65-6.11-2.73-1.51-.08-3.39.92-5.22,1.89-2.38,1.26-4.83,2.57-6.95,1.71-1.28-.53-2.2-1.74-2.82-3.71l-.09-.28.08-.29c.38-1.36,1.09-2.75,1.85-4.23,1.28-2.51,2.61-5.1,1.99-7.11-.16-.51-.62-1.13-1.11-1.78-.54-.73-1.16-1.55-1.52-2.46-1.34-3.33-2.58-6.91-3.99-11.53l-10.96-3.76-.15-.48c-.63-1.98-.6-3.57.1-4.85,1.16-2.1,3.86-2.82,6.49-3.51,1.61-.42,3.28-.86,4.57-1.6-.05-3.2,2.31-7.56,4.41-11.43,1.2-2.21,2.43-4.49,2.49-5.39.09-1.49-.92-3.38-1.89-5.21-1.27-2.38-2.58-4.85-1.71-6.97.53-1.28,1.74-2.21,3.71-2.82l.27-.08.28.07c1.24.33,2.72,1.08,4.29,1.87,2.22,1.13,4.99,2.53,6.42,2.17.53-.13,1.72-.88,2.77-1.55,1.32-.83,2.69-1.7,3.86-2.15,3.1-1.19,6.31-2.05,9.44-2.87l4.2-11.4h6.35l4.29,11.41,16.44,6.61,10.48-4.19Z"/>
  <path d="M285.49,247.02c-1.52,0-3.09.12-4.7.35-15.16,2.22-21.55,15.74-20.03,27.95,1.51,12.08,10.52,23.51,27.28,21.78,9.25-.95,16.23-5.88,19.68-13.87,3.8-8.81,2.48-19.77-3.27-27.27-4.49-5.85-11.11-8.94-18.95-8.94ZM290.54,279.93c-2.13,1.49-4.05,2-5.67,2-1.92,0-3.43-.71-4.39-1.33-3.45-2.24-5.45-7.04-4.65-11.15.69-3.54,3.33-6,7.22-6.75,5.54-1.06,9.56,2.08,11.08,5.67,1.79,4.23.38,8.76-3.59,11.56Z"/>
</svg>