<?xml version="1.0" encoding="UTF-8"?>
<svg id="_Слой_1" data-name="Слой 1" xmlns="http://www.w3.org/2000/svg" width="332.68" height="332.68" viewBox="0 0 332.68 332.68">
  <path d="M322.28,0H10.4C4.65,0,0,4.65,0,10.4v311.89c0,5.74,4.65,10.4,10.4,10.4h311.89c5.74,0,10.4-4.65,10.4-10.4V10.4c0-5.74-4.65-10.4-10.4-10.4ZM20.79,20.79h128.5c-25.68,55.52-34.93,140.56-34.93,144.51-.3,2.92.64,5.82,2.6,8.01,1.99,2.2,4.83,3.45,7.8,3.43h50.84c-1.99,24.28-1.12,48.7,2.6,72.77-3.85,0-7.8.52-11.85.52-40.62-.73-79.11-18.31-106.25-48.55-3.57-4.46-10.07-5.2-14.55-1.66-4.5,3.56-5.27,10.1-1.71,14.6.01.02.03.04.04.06,31.03,35.17,75.57,55.47,122.47,55.83,5.51,0,10.92,0,16.11-.83,3.57,14.72,8.87,28.96,15.8,42.42H20.79V20.79ZM311.89,311.89h-89.51c-8.78-14.23-15.3-29.73-19.34-45.95,33.22-7.89,63.18-25.87,85.77-51.46,3.73-4.37,3.21-10.93-1.15-14.66s-10.93-3.21-14.66,1.16c-.14.16-.28.33-.41.51-19.63,21.71-45.3,37.06-73.71,44.08-3.93-25.71-4.38-51.83-1.35-77.66.86-5.68-3.04-10.98-8.72-11.84-.56-.08-1.12-.12-1.68-.12h-50.63c3.53-26.93,14.14-94.81,35.97-135.15h139.41v291.1Z"/>
  <path d="M83.17,135.15c5.74,0,10.4-4.65,10.4-10.4v-31.19c0-5.74-4.65-10.4-10.4-10.4s-10.4,4.65-10.4,10.4v31.19c0,5.74,4.65,10.4,10.4,10.4Z"/>
  <path d="M249.51,135.15c5.74,0,10.4-4.65,10.4-10.4v-31.19c0-5.74-4.65-10.4-10.4-10.4s-10.4,4.65-10.4,10.4v31.19c0,5.74,4.65,10.4,10.4,10.4Z"/>
</svg>