<?xml version="1.0" encoding="UTF-8"?>
<svg id="_Слой_1" data-name="Слой 1" xmlns="http://www.w3.org/2000/svg" width="345.88" height="417.67" viewBox="0 0 345.88 417.67">
  <g id="JCsesA.tif">
    <g>
      <path d="M327.17,0c9.86,2.54,15.93,9.02,18.71,18.73v57.8c-2.8,12.44-12.44,19.86-25.22,19.54l.76,14.3c12.34-.24,21.38,7.4,24.46,19.08v57.8c-2.97,12.03-11.85,19.41-24.46,19.08l-.41,14.35c.83,1.2,5.79.69,7.83,1.12,8.37,1.75,15.16,10.35,17.04,18.37v16.28c-2.51,5.44-11.14,5.97-12.15-.46-1.28-8.12,3.3-19.67-8.58-22.36l-304.23.06c-3.75.6-6.89,4.97-7.72,8.55,1.13,16.69-1.68,35.69-.09,52.09.4,4.11,2.33,7.51,6.08,9.38l304.35.79c16.37-1.53,6.72-19.82,11.39-25.24,3.1-3.6,9.05-1.6,10.96,2.42v16.28c-1.78,5.77-4.72,11.44-9.81,15.01-.98.68-7.03,3.72-7.68,3.72h-135.05l-1.22,1.22v28.5c0,.37,2.99,1.99,3.7,2.81,3.84,4.46,3.81,10.76,3.62,16.32h18.3c3.43,0,6.57,6.39,8.11,6.58h110.6c5.26.72,7.45,3.49,9.43,8.08v21.98c-1.97,4.58-4.17,7.35-9.43,8.07h-110.6c-3.87,3.56-4.3,6.03-10.52,6.62-27.06,2.53-58-1.97-85.47-.01-5.87-.71-8.2-6.42-9.72-6.6H10.37c-3.67-.71-6.63-2.09-8.21-5.63-1.76-3.93-1.79-19.25-1.02-23.83.95-5.65,5.22-8.55,10.75-8.78l108.26.1c1.54-.18,4.68-6.58,8.11-6.58h19.12c-.07-5.81-.48-11.76,3.63-16.31.73-.81,3.69-2.49,3.69-2.82v-29.72H18.44c-7.39,0-16.33-12.32-17.28-19.34-1.6-11.89-1.41-42.93-.2-55.14,1.36-13.67,13.34-22.7,26.84-20.76v-15.48c-14.39,1.79-25.63-7-26.88-21.54-1.15-13.4-1.15-38.76,0-52.16,1.21-14.17,12.78-23.3,26.88-21.54v-14.66c-14.59.72-25.69-7.42-26.88-22.36-.49-6.13-1.64-19.12,7.72-17.54,6.82,1.15,3.96,12.61,4.52,17.51.67,5.88,5.26,9.5,10.98,10.18l297.79.03c6.74-.6,11.15-4.11,11.79-10.99,1.05-11.18,1.36-40.49-.1-51.25-.68-5.02-3.69-8.28-8.67-9.24l-302.46-.21c-17.01,2.05-2.8,28.1-15.35,27.66C-.99,39.57.37,26.73.95,20.77,2.02,10,9.56,2.71,19.66,0h307.51ZM308.46,96.07H40v14.65h268.47v-14.65ZM21.06,123.12c-5.37,1.71-7.46,5.27-7.95,10.77-1.44,16.3,1.1,34.74.09,51.27.47,3.03,3.95,7.73,7.03,8.43l306.98-.19c3.04-1.51,5.21-4.36,6.28-7.56-1.22-16.6,2.3-37.37.11-53.48-.63-4.66-3.36-7.86-7.84-9.25H21.06ZM308.46,205.98H41.22l-1.22,1.22v13.03l1.22,1.22h267.24v-15.47ZM179.92,316.7h-13.02v29.31h13.02v-29.31ZM214.09,377.76h-22.37c-.57,0-4.47-3.29-4.47-3.66v-14.65l-1.22-1.22h-25.22l-1.22,1.22v14.65c0,.37-3.91,3.66-4.47,3.66h-23.19v26.87h82.17v-26.87ZM119.72,384.28H13.15v13.84h106.57v-13.84ZM333.68,384.28h-107.39v13.84h107.39v-13.84Z"/>
      <path d="M32.44,28.67l158.48-.19c6.92.82,8.51,7.9,2.81,11.81l-159.86.44c-7.34-.62-8.12-9.71-1.43-12.05Z"/>
      <path d="M31.62,55.53l160.11-.18c9.27,1.08,5.67,13.36-3.24,12.26H36.3c-7.48.04-12.03-7.5-4.68-12.08Z"/>
      <path d="M272.14,30.41c23.25-23.22,58.01,11.15,35.95,34.75-22.41,23.96-59.22-11.51-35.95-34.75ZM288.77,35.19c-16.17,1.59-14.92,27.97,3.78,25.01,14.93-2.36,12.3-26.58-3.78-25.01Z"/>
      <path d="M32.44,276.99l158.48-.19c6.92.82,8.51,7.9,2.81,11.81l-159.86.44c-7.34-.62-8.12-9.71-1.43-12.05Z"/>
      <path d="M31.62,250.93l160.11-.18c8.85,1.03,6.03,13.15-2.42,12.26H36.3c-7.48.04-12.03-7.5-4.68-12.08Z"/>
      <path d="M285.47,244.44c34.28-5.4,39.92,46.38,7.03,49.36-32.59,2.95-36.66-44.69-7.03-49.36ZM281.08,278.16c12.37,12.34,30.86-8.51,16.41-19.27-12.63-9.4-27.3,8.41-16.41,19.27Z"/>
      <path d="M33.25,139.39l156.06-.2c8.48-.88,11.26,11.23,2.42,12.26l-158.69.03c-7.33-1.85-6.38-9.8.21-12.08Z"/>
      <path d="M29.65,176.44c-3.76-3.78-1.24-10.25,4.23-10.37l157.89-.03c7.49.99,6.84,11.81-.84,12.27l-155.44.03c-1.63-.01-4.74-.8-5.83-1.9Z"/>
      <path d="M287.13,133.75c33.17-3.53,37.07,45.91,6.2,49.34-33.68,3.74-38.2-45.94-6.2-49.34ZM281.08,149.26c-10.35,10.32,2.53,27.92,15.45,19.94,16.04-9.91-2.66-32.7-15.45-19.94Z"/>
    </g>
  </g>
</svg>