<?xml version="1.0" encoding="UTF-8"?>
<svg id="_Слой_1" data-name="Слой 1" xmlns="http://www.w3.org/2000/svg" width="418.09" height="427.92" viewBox="0 0 418.09 427.92">
  <g id="KNbF4J.tif">
    <g>
      <path d="M117.18,427.92c-5.46-3.04-8.77-7.66-5.02-13.74,4.41-7.14,15.16-2,21.84-3.92,3.95-1.13,24.1-20.06,27.32-24.19,5.18-6.62,8.82-15.77,4.68-23.93l-129.09-.66c-17.17-2.53-30.8-14.11-35.26-30.97C-.69,251.99-.35,172.58,1.49,94.02c3.59-16.24,18.32-30.46,35.19-31.96,7.52-.67,17.82-.66,17.06,9.63-.74,10.13-12.75,6.81-19.58,9-5.7,1.83-15.44,10.7-15.44,16.75v191.67h53.37V34.01c0-13.98,21.99-33.38,36.47-32.52,65,2.98,134.17-4.36,198.69-.16,13.87.9,25.43,6.66,33.01,18.5,1.58,2.47,6.06,11.76,6.06,14.17v255.1h53.37V97.44c0-4.08-7.37-12.56-11.1-14.65-7.68-4.31-12.17-1.79-18.39-3.69-7.89-2.41-7.23-15.64,1.48-17,16.69-2.61,33.87,7.23,41.56,21.81l4.86,14.91v226.14c-3.59,20.24-18.26,34.95-39.08,36.8l-126.6.39c-5.89,11.13,3.02,23.1,10.59,30.86,2.72,2.79,18.08,16.02,20.77,16.94,6.68,2.28,18.01-2.71,22.47,4.21,3.62,5.62.21,11.01-5.02,13.75H117.18ZM328.83,45.5c1.14-16.78-8.24-25.42-24.4-26.65-61.84,2.89-127.25-3.88-188.68-.06-17.07,1.06-27.19,8.46-26.18,26.7h239.26ZM328.83,62.97H89.57v226.14h239.26V62.97ZM399.69,306.58H18.72v19.76c0,8.85,16.52,19.4,25.26,17.97h331.35c8.38,1.15,24.35-9.58,24.35-17.97v-19.76ZM233.13,361.73h-48.77c-.24.67.92,1.1.92,1.38v13.79c0,.73-2.09,6.22-2.59,7.52-4.06,10.41-12.11,18.03-19.49,26.03h91.1c-1.41-4.28-6.32-7.09-9.17-10.6-3.41-4.19-11.99-17.02-11.99-22.04v-16.09Z"/>
      <path d="M175.85,154.22c14.12-2.03,22.37,4.93,35.69,4.39,13.78-.55,18.85-7.95,35.34-3.21,22.72,6.53,29.73,30.08,27.7,51.48-.79,8.34-8.15,10.42-15.07,13.44-32.71,14.29-67.18,14.41-99.97.27-7.12-3.07-14.91-5.26-15.72-13.71-2.17-22.56,6.6-49,32.03-52.67ZM179.52,171.67c-13.65,2.09-19.79,17.03-18.02,29.5,1.32,3.87,28.61,10.66,33.69,11.39,20.62,2.95,43.78-.96,61.72-11.39.48-9.16-.6-18.54-8.12-24.68-12.42-10.15-19.17-1.8-31.87-.57-7.04.68-15.56.27-22.46-1.23-5.68-1.23-8.23-4.05-14.93-3.02Z"/>
      <path d="M206.24,80.69c16.54-1.61,33.2,11.03,35.07,27.88,3.63,32.69-37.01,49.76-57.42,24.27-16.05-20.04-2.94-49.69,22.35-52.15ZM205.27,99.03c-14.54,3.01-13.88,26.35,1.72,28.21,22.69,2.7,21.69-33.07-1.72-28.21Z"/>
      <path d="M135.32,251.61c5.88-1.32,20.43-1.68,22.16,5.98,2.83,12.54-12.01,12.31-20.53,11.32-10.25-1.2-10.15-15.38-1.63-17.29Z"/>
      <path d="M222.74,251.61c5.18-1.16,20.25-1.38,22.16,5.05,3.91,13.22-11.73,13.26-20.53,12.24-9.72-1.12-10.09-15.4-1.63-17.29Z"/>
      <path d="M266.91,251.61c5.83-1.31,20.51-1.67,22.18,5.99,2.72,12.52-12.11,12.29-20.55,11.3-10.25-1.2-10.15-15.38-1.63-17.29Z"/>
      <path d="M179.49,251.61c2.75-.62,11.55-.56,14.55-.21,10.17,1.17,10.17,16.32,0,17.51-3.59.42-13.51.44-16.47-1.06-6.94-3.52-5.49-14.56,1.92-16.24Z"/>
      <path d="M215.36,332.03c-8.3,7.7-21.61-5.3-12.16-13.53,8.63-7.51,20.64,5.67,12.16,13.53Z"/>
      <path d="M167.56,316.92c13.3-3.42,16.38,14.85,5.07,17.04s-14.41-14.64-5.07-17.04Z"/>
      <path d="M244.83,316.88c14.23-3.19,15.67,18.35,1.66,17.33-9.41-.69-10.37-15.38-1.66-17.33Z"/>
    </g>
  </g>
</svg>